<svg xmlns="http://www.w3.org/2000/svg" viewBox="0 0 200 56"><path d="M0 0h.04L0 .04Zm50.6 19.74c.39.08.87.11 1.04.53.25.67.25 1.4.25 2.1q-.13 1.11-.07 2.24a28 28 0 0 0-1.21-4.87m2.05.12c.61-.09 1.23-.07 1.84-.07l9.09-.02c.46-.05.8.3.96.7.1 3.17-.01 6.33.02 9.5-.01.64.08 1.3-.13 1.92-.27.34-.75.3-1.14.32l-9.93.03c-.37-.03-.93.01-1.05-.44-.14-.67-.04-1.36-.05-2.05l-.02-5.19c0-1.08.07-2.17-.02-3.25-.01-.5.02-1.1.43-1.45" fill="#4bc8f9"></path><path d="M19.96 16.25a11 11 0 0 1 5.17-.87c.83.1 1.67.26 2.46.57a9 9 0 0 1 3 2.1q1.21-.99 2.66-1.62a11 11 0 0 1 6.57-.58c.95.23 1.81.75 2.58 1.35a9 9 0 0 1 2.97 4.7c1.12 4.51 2.06 9.07 3.15 13.6.21.88-.2 1.75-.6 2.52a4.5 4.5 0 0 1-3.9 1.92 3.7 3.7 0 0 1-3.2-1.94c-.47-.95-.58-2.02-.84-3.03-.64-2.55-1.18-5.13-1.78-7.68-.2-.98-.83-1.9-1.79-2.27-1.21-.37-2.75.24-3.14 1.52-.33 1.3.16 2.6.45 3.86l1.59 7c.23.93.07 1.92-.35 2.76a4 4 0 0 1-2.09 1.72 3.9 3.9 0 0 1-3.42-.15A3.8 3.8 0 0 1 27.58 39l-2.46-10.45c-.26-1.21-.57-2.54-1.54-3.39-1.33-1.09-3.67-.42-4.14 1.26-.34 1.33.21 2.66.52 3.95.44 1.84.96 3.68 1.27 5.55a6 6 0 0 1-1.12 4.77 9 9 0 0 1-3.18 2.42 8.4 8.4 0 0 1-4.77.95 2.5 2.5 0 0 1-2.1-1.67c-.22-.82-.1-1.8.52-2.43.95-.96 2.38-1.44 3.04-2.68.38-.72.02-1.5-.2-2.2-.69-1.92-1.27-3.86-1.96-5.78A43 43 0 0 1 10 23.54c-.13-.86-.28-1.72-.3-2.6 0-1.31.25-2.73 1.15-3.74a4.7 4.7 0 0 1 4.73-1.36c.9.26 1.6.93 2.18 1.64q1.05-.69 2.2-1.23" fill="#fefefd"></path><path d="M24.48 3.6a20 20 0 0 1 6.43.07c2.5.35 4.95 1.11 7.24 2.17-.93 1-1.87 2-2.88 2.92-3 2.72-6.5 4.86-10.14 6.62a11 11 0 0 0-5.17.87q-1.15.54-2.21 1.23a4.6 4.6 0 0 0-2.18-1.64 4.7 4.7 0 0 0-4.73 1.36c-.9 1.01-1.15 2.43-1.15 3.75-1.08.37-2.2.54-3.31.78q-1.4.29-2.82.43A24.6 24.6 0 0 1 24.48 3.6" fill="#56c905"></path><path d="M173.75 5.16c2.48-.24 5-.13 7.41.48 2.24.52 4.36 1.56 6.2 2.94a18.4 18.4 0 0 1 5.5 6.94 29 29 0 0 1 2.08 7.36 35 35 0 0 1-.02 10.05 25 25 0 0 1-2.38 7.91c-.99 2.06-2.4 3.9-4.05 5.46a17 17 0 0 1-8.24 4.06c-3.1.58-6.36.52-9.43-.31a17 17 0 0 1-6.28-3.25 19 19 0 0 1-4.6-5.9c-2.02-4.03-2.77-8.62-2.71-13.11-.03-3.64.48-7.31 1.75-10.74a20 20 0 0 1 4.86-7.43c1.8-1.6 3.9-2.9 6.2-3.62a21 21 0 0 1 3.71-.84m1.52 12.4c-.77.14-1.47.53-2.01 1.1a9 9 0 0 0-2.06 4.41c-.37 1.55-.4 3.14-.49 4.72.1 2.97.3 6.14 2 8.68 1.34 2.14 4.75 2.46 6.48.64a8.4 8.4 0 0 0 1.77-3.24c.9-3 .93-6.2.58-9.28-.31-2.16-.8-4.47-2.43-6.04-.98-1.01-2.5-1.26-3.84-1M129.73 6.13c3.08-.45 6.2-.55 9.3-.6 1.17 0 2.33-.15 3.5-.08 1.67.14 3.36.02 5.03.2 2.1.06 4.18.22 6.24.6 1.47.27 2.98.84 3.96 2.02a7 7 0 0 1 1.37 5.78 5.5 5.5 0 0 1-1.9 3.52c-1.48 1.25-3.48 1.53-5.34 1.63-1.22.18-2.47 0-3.7.2-.15 1.58-.34 3.15-.32 4.74-.08 5.06.25 10.11.58 15.16.05 2.23.17 4.5-.4 6.68a6.7 6.7 0 0 1-2.96 4.16 8 8 0 0 1-5.64.64 6.3 6.3 0 0 1-4.2-3.7 11 11 0 0 1-.79-3.99q-.16-1.62 0-3.23c.02-3.28.43-6.54.48-9.82q.2-3.44.1-6.88c-.13-1.28-.14-2.59-.45-3.85-1.98.03-3.97-.05-5.93-.38-1.8-.33-3.62-1.34-4.4-3.09a8.6 8.6 0 0 1-.61-4.2c.23-1.46.8-2.97 1.98-3.91a8 8 0 0 1 4.1-1.6" fill="#17a906"></path><path d="M58.58 7.75A9 9 0 0 1 64 5.25a11 11 0 0 1 4.09.37c2.27.7 4.16 2.34 5.41 4.34 1.52 2.48 2.52 5.24 3.5 7.96 1.06 3.22 2.07 6.46 2.93 9.74q1.13 3.9 2.01 7.9c.48 2.4 1.1 4.8 1.3 7.24.03 1.19.11 2.4-.24 3.55a6 6 0 0 1-1.94 3.06 7.1 7.1 0 0 1-8.84-.13 6.6 6.6 0 0 1-1.92-3.39c-.4-1.53-.62-3.1-.98-4.66-1.57-.02-3.15-.05-4.72 0v-5.86c-.01-.7.06-1.4-.05-2.1 0-.33-.37-.44-.64-.5-.8-.16-1.62-.1-2.43-.1q-3.98.02-7.97-.01c-.37.02-.76 0-1.1.19-.24.2-.18.55-.2.83v8.85c.02.74-.05 1.52.17 2.24.12.5.73.44 1.13.48l5.74-.02a7 7 0 0 1-2.23 4.18 7 7 0 0 1-5.46 1.38 6.2 6.2 0 0 1-3.94-2.06 7 7 0 0 1-1.5-3.5l3.9.03c.48-.01 1 .04 1.44-.16.29-.31.25-.77.28-1.16v-8.57q.07-1.12-.17-2.21c.19-1.4.33-2.8.32-4.2.2-1.45.11-2.9-.07-4.35q-.06-1.13.07-2.24l.34-1.06c.1 1.08.02 2.17.02 3.25l.02 5.2c0 .68-.1 1.37.05 2.04.12.45.68.41 1.05.44l9.93-.03c.39-.03.87.02 1.14-.32.2-.62.12-1.28.13-1.93 1.14.05 2.27 0 3.4-.07a27 27 0 0 0-2.49-9.91c-.12-.22-.21-.51-.52-.49q-.29.46-.41.99c-.15-.42-.5-.76-.96-.7-3.03-.03-6.06 0-9.1 0q-.9-.02-1.83.08 1-3.46 2.43-6.78c.87-1.94 1.9-3.88 3.49-5.33m25.76-1.07c1.55-1.3 3.72-1.53 5.66-1.2 1.5.23 2.9 1.15 3.65 2.48q.71 1.33.78 2.85-.07 1.05-.07 2.1c-.23 3.38-.8 6.72-.8 10.1-.06 2 .08 4 .3 5.97.71-1.64 1.08-3.4 1.64-5.09.66-2.06 1.15-4.22 2.3-6.07a5 5 0 0 1 3.92-2.23c.98-.02 2.01-.04 2.88.48 1.8.95 2.74 2.9 3.35 4.76.85 2.5 1.48 5.08 2.35 7.59q.11.3.25.56c.68-4.97.15-10-.46-14.95a23 23 0 0 1-.11-3.23 5.4 5.4 0 0 1 2.09-4.33 6.4 6.4 0 0 1 3.9-1.11 6.4 6.4 0 0 1 4.35 1.51 8 8 0 0 1 2.03 3.41c.4 1.2.45 2.48.63 3.72.52 5.5.13 11.03-.42 16.5a89 89 0 0 1-2 10.5c-.3 1.26-.75 2.47-1.19 3.69a11.4 11.4 0 0 1-3.01 4.81 7 7 0 0 1-5.52 1.43 6 6 0 0 1-4.07-2.1c-1.7-1.91-2.27-4.49-2.9-6.89-.55-2-.96-4.02-1.36-6.05-.1-.43-.15-.88-.33-1.29-.74 3.3-1.29 6.65-2.25 9.9a10.3 10.3 0 0 1-2.66 4.78c-2.7 2.5-7.46 2.31-9.88-.5-.86-.92-1.5-2.04-1.98-3.21q-.75-1.77-1.28-3.64c-2-7-2.8-14.3-2.96-21.58q.08-.98 0-1.97c.06-2.23.15-4.47.51-6.69.34-1.88 1.1-3.81 2.66-5" fill="#0274d6"></path><path d="M35.27 8.76c1-.92 1.95-1.92 2.88-2.92a25 25 0 0 1 8.28 6.54q-.7.53-1.46.92c-.96.47-1.88 1.02-2.84 1.48-.77.37-1.5.84-2.31 1.07a10.8 10.8 0 0 0-9.24 2.2 9 9 0 0 0-2.99-2.1q-1.2-.44-2.46-.57a48 48 0 0 0 10.14-6.62M6.36 21.72c1.12-.24 2.25-.4 3.33-.77.02.87.17 1.73.3 2.59.38 1.94.83 3.89 1.47 5.77-1.54.44-2.88 1.37-4.38 1.92-1.27.46-2.5 1.04-3.82 1.36-.65-3.46-.54-7.02.3-10.44q1.4-.15 2.8-.43" fill="#31ad01"></path><path d="M46.43 12.38a24.7 24.7 0 0 1 5.4 12.23c.17 1.44.26 2.9.07 4.35 0 1.4-.14 2.8-.33 4.2l-1.21 3.8c-.37 1.22-1 2.33-1.63 3.42a24 24 0 0 1-3.58 4.83 25 25 0 0 1-16.78 7.55c-1.3.04-2.63.02-3.92-.22a24.6 24.6 0 0 1-21.2-19.96c1.33-.31 2.56-.88 3.83-1.35 1.5-.55 2.84-1.48 4.38-1.93.69 1.92 1.27 3.86 1.95 5.78.23.7.59 1.48.21 2.2-.66 1.24-2.1 1.72-3.04 2.69-.63.62-.74 1.6-.52 2.42a2.5 2.5 0 0 0 2.1 1.67 8.4 8.4 0 0 0 4.77-.95 9 9 0 0 0 3.18-2.42 6 6 0 0 0 1.12-4.77c-.3-1.87-.83-3.7-1.27-5.55-.3-1.29-.86-2.62-.52-3.95.47-1.68 2.81-2.35 4.14-1.26.97.85 1.28 2.18 1.54 3.39L27.58 39a3.8 3.8 0 0 0 1.87 2.73c1.03.61 2.34.6 3.42.15a4 4 0 0 0 2.09-1.72 4 4 0 0 0 .35-2.75l-1.6-7c-.28-1.27-.77-2.57-.44-3.87.39-1.28 1.92-1.9 3.14-1.52a3 3 0 0 1 1.79 2.27l1.78 7.68c.26 1.01.37 2.09.84 3.03a3.7 3.7 0 0 0 3.2 1.94 4.5 4.5 0 0 0 3.9-1.92c.4-.77.81-1.64.6-2.52l-3.15-13.6c-.55-1.8-1.46-3.55-2.97-4.7a7 7 0 0 0-2.59-1.35c.82-.23 1.55-.7 2.31-1.06.97-.47 1.9-1.02 2.85-1.5q.76-.38 1.46-.91" fill="#0d9000"></path><path d="M52.41 32.85c.34-.19.73-.17 1.1-.19h7.97c.81.02 1.63-.05 2.43.1.27.07.64.18.64.52.1.69.04 1.4.04 2.09v8.7c-.02.36-.03.84-.41 1.01-.56.18-1.15.13-1.72.13l-3.2.02-5.75.02c-.4-.04-1 .02-1.13-.48-.22-.72-.15-1.5-.17-2.24v-8.85c.02-.28-.04-.64.2-.83m-.84.31c.18.72.2 1.47.18 2.2v8.58c-.04.39 0 .85-.29 1.16-.45.2-.96.15-1.44.16-1.3-.03-2.6 0-3.9-.02l-.98-.03a24 24 0 0 0 3.59-4.83c.63-1.1 1.26-2.2 1.63-3.41.37-1.28.82-2.54 1.2-3.81" fill="#2aaef7"></path></svg>